<?xml version="1.0" encoding="utf-8"?>
<!-- Generator: Adobe Illustrator 16.0.0, SVG Export Plug-In . SVG Version: 6.00 Build 0)  -->
<!DOCTYPE svg PUBLIC "-//W3C//DTD SVG 1.1//EN" "http://www.w3.org/Graphics/SVG/1.1/DTD/svg11.dtd">
<svg version="1.1" xmlns="http://www.w3.org/2000/svg" xmlns:xlink="http://www.w3.org/1999/xlink" x="0px" y="0px" width="72px"
	 height="72px" viewBox="0 0 72 72" enable-background="new 0 0 72 72" xml:space="preserve">
<g id="Layer_1" display="none">
	<g display="inline">
		<path d="M-91.004,28.061c0-2.537,0-5.073,0-7.609c0.162-1.096,0.403-2.188,0.473-3.289c0.997-15.744,5.262-30.562,12.71-44.447
			c9.904-18.465,23.909-33.133,41.579-44.308c17.117-10.825,35.823-17.07,55.959-19.091c2.693-0.271,5.381-0.595,8.071-0.894
			c3.1,0,6.201,0,9.301,0c0.587,0.145,1.165,0.358,1.761,0.423c5.867,0.639,11.806,0.878,17.596,1.938
			c25.142,4.603,47.323,15.368,65.54,33.409c27.058,26.799,38.699,59.224,33.204,97.112c-3.402,23.463-14.04,43.664-30.611,60.577
			c-21.404,21.847-47.548,34.031-77.899,37.325c-2.355,0.255-4.703,0.587-7.054,0.883c-4.509,0-9.018,0-13.528,0
			c-0.667-0.163-1.326-0.398-2.003-0.477c-3.911-0.444-7.85-0.696-11.735-1.297c-23.499-3.635-44.514-12.931-62.579-28.409
			C-73.072,90.325-86.85,65.72-90.179,35.571C-90.456,33.068-90.729,30.564-91.004,28.061z M-15.277,91.071
			c0.571,0.321,1.011,0.53,1.409,0.8c14.662,9.924,30.77,14.684,48.538,14.158c15.507-0.458,29.566-5.071,42.385-13.65
			c9.499-6.357,17.22-14.451,23.207-24.196c0.774-1.26,1.231-2.169-0.558-3.169c-5.713-3.19-11.335-6.544-16.948-9.909
			c-1.259-0.754-1.935-0.589-2.669,0.671c-3.008,5.161-6.996,9.479-11.488,13.399C50.203,85.23,22.096,87.228,1.605,73.867
			c-2.867-1.87-2.851-1.857-0.805-4.633c0.907-1.229,1.731-2.52,2.778-4.053c-0.87-0.087-1.146-0.16-1.414-0.135
			c-8.964,0.838-17.923,1.737-26.895,2.484c-1.839,0.153-2.084,0.871-1.749,2.417c1.611,7.416,3.169,14.845,4.771,22.264
			c0.34,1.58,0.783,3.138,1.326,5.287C-18.414,95.021-16.861,93.065-15.277,91.071z M-2.976-54.499
			c-0.165,0.189-0.33,0.377-0.495,0.566c0.75,1.643,1.445,3.313,2.266,4.92c0.733,1.435,0.695,2.26-1.022,3.054
			c-7.992,3.694-15.156,8.662-21.422,14.843C-37.492-17.461-45.587-0.995-47.502,18.412c-1.614,16.357,1.468,31.775,9.352,46.228
			c0.732,1.343,1.393,1.689,2.787,0.869c5.581-3.286,11.184-6.535,16.837-9.692c1.466-0.819,1.607-1.532,0.823-2.977
			c-5.307-9.78-7.5-20.244-6.473-31.329C-22.561,4.064-14.394-9.673-0.3-19.913c2.807-2.039,5.956-3.608,9.145-5.512
			c1.289,2.745,2.366,5.04,3.676,7.83c0.702-1.309,1.127-2.015,1.472-2.757c3.536-7.589,7.057-15.186,10.587-22.777
			c1.048-2.253,0.951-2.437-1.474-3.199c-5.971-1.876-11.931-3.783-17.901-5.662C2.484-52.845-0.248-53.664-2.976-54.499z
			 M119.933,36.151c-0.93-0.329-1.361-0.581-1.813-0.624c-1.61-0.155-3.23-0.205-4.841-0.363c-0.932-0.091-1.664-0.243-1.645-1.625
			c0.072-5.19,0.287-10.411-0.139-15.572c-1.273-15.445-7.136-29.137-16.696-41.247C84.022-36.929,70.09-46.046,53.416-50.652
			c-6.243-1.725-12.87-2.068-19.328-3.003c-1.155-0.167-2.104,0.091-2.122,1.607c-0.083,6.684-0.195,13.368-0.308,20.051
			c-0.02,1.214,0.517,1.8,1.753,1.853c1.828,0.078,3.672,0.105,5.474,0.382c14.129,2.178,26.226,8.249,35.739,19.053
			c8.737,9.922,13.244,21.616,13.993,34.76c0.153,2.684-0.145,5.393-0.233,8.074c-3.046-0.187-5.575-0.342-8.303-0.509
			c0.233,0.654,0.264,0.875,0.377,1.038c5.335,7.604,10.682,15.199,16.015,22.804c0.888,1.267,1.577,0.606,2.374-0.12
			c3.691-3.365,7.416-6.695,11.113-10.056C113.178,42.358,116.374,39.412,119.933,36.151z M7.045,7.709
			c0.43,3.916,0.413,7.546,1.279,10.953c2.769,10.9,14.784,18.281,25.243,15.695c4.297-1.062,8.553-2.304,12.875-3.249
			c5.145-1.125,10.311-1.189,15.458,0.237c3.557,0.986,6.521,2.814,8.994,6.21c0.196-1.044,0.418-1.573,0.369-2.075
			c-0.287-2.937-0.35-5.935-1.014-8.789C66.295,9.68,55.947-2.253,40.321-9.537c-10.886-5.074-23.974-1.016-29.371,9.473
			C8.742,4.226,6.054,5.278,1.862,5.829c-5.654,0.743-11.141,2.428-15.866,5.903c-2.608,1.918-2.899,3.786-1,6.613
			C-9.275,11.225-1.102,9.332,7.045,7.709z M14.06,57.249c0.234,0.13,0.469,0.26,0.703,0.39c-0.472,1.225-1.022,2.426-1.375,3.684
			c-0.132,0.474,0.031,1.343,0.36,1.549c0.379,0.237,1.445,0.13,1.602-0.16c0.833-1.533,1.674-3.122,2.08-4.797
			c0.16-0.658-0.614-1.868-1.298-2.334c-1.203-0.819-2.666-1.257-4.017-1.859c-0.764-0.341-1.496-0.828-2.296-0.992
			c-0.55-0.112-1.527,0.024-1.731,0.383c-0.9,1.58-1.656,3.255-2.303,4.957c-0.143,0.374,0.251,1.28,0.612,1.431
			c0.402,0.168,1.267-0.08,1.541-0.441c0.584-0.77,0.842-1.78,1.385-2.591c0.276-0.411,0.88-0.604,1.336-0.895
			c0.141,0.149,0.282,0.3,0.422,0.449c-0.507,1.213-1.103,2.398-1.474,3.651c-0.133,0.447,0.215,1.468,0.455,1.505
			c0.549,0.085,1.347-0.106,1.712-0.496c0.503-0.537,0.64-1.397,1.047-2.049C13.146,58.116,13.641,57.707,14.06,57.249z
			 M54.743,52.579c-0.252-0.417-0.342-0.781-0.551-0.874c-0.647-0.285-1.34-0.467-2.015-0.689c0.004,0.728-0.225,1.564,0.058,2.159
			c0.688,1.449,1.615,2.783,2.44,4.167c1.489,2.492,1.486,2.488,4.093,1.297c0.248-0.113,0.668-0.012,0.804-0.178
			c0.736-0.9,1.842-1.781,2.009-2.803c0.302-1.852-0.755-3.362-2.395-4.328C57.551,50.368,56.239,51.095,54.743,52.579z
			 M19.685,65.006c3.858,0.557,4.857,0.069,5.682-2.546c0.484-1.534,0.603-3.237-0.79-4.021c-1.492-0.839-3.379-0.996-5.115-1.354
			c-0.176-0.036-0.623,0.555-0.716,0.913c-0.654,2.515-1.309,5.032-1.808,7.579c-0.091,0.465,0.532,1.068,0.825,1.608
			c0.52-0.342,1.105-0.617,1.536-1.048C19.556,65.882,19.568,65.382,19.685,65.006z M71.422,48.382
			c-0.003-1.977-2.27-4.188-4.285-4.181c-2.062,0.008-3.838,1.704-3.849,3.68c-0.013,2.192,1.981,4.289,4.07,4.279
			C69.442,52.15,71.426,50.307,71.422,48.382z M54.814,60.946c-0.691-1.627-1.178-3.1-1.935-4.417
			c-0.403-0.703-1.193-1.435-1.947-1.639c-1.706-0.46-4.36,0.975-4.325,2.435c0.038,1.568,0.691,3.141,1.215,4.664
			c0.153,0.445,0.729,0.873,1.205,1.046c0.488,0.178,1.166,0.2,1.634-0.003C52.041,62.435,53.358,61.691,54.814,60.946z
			 M6.697,52.439c0.003-2.13-1.733-3.919-3.81-3.927c-2.127-0.008-4.214,2.252-4.161,4.506c0.048,2.016,1.962,3.798,4.053,3.773
			C4.977,56.767,6.693,54.859,6.697,52.439z M34.982,63.715c0.42,2.172,1.72,2.61,3.206,2.558c1.497-0.054,3.403-0.31,3.54-1.997
			c0.14-1.727-0.346-3.707-1.167-5.253c-0.815-1.533-4.442-0.993-5.377,0.554c-0.863,1.427-0.042,3.25,1.627,3.575
			c0.628,0.122,1.269,0.179,1.904,0.265c-0.043,0.207-0.086,0.413-0.129,0.619c-0.533-0.148-1.06-0.375-1.602-0.425
			C36.395,63.555,35.789,63.664,34.982,63.715z M26.155,62.525c0,2.479,1.655,4.127,4.098,4.081
			c2.342-0.043,3.752-1.617,3.732-4.162c-0.02-2.479-1.516-4.004-3.908-3.983C27.785,58.48,26.155,60.169,26.155,62.525z
			 M-0.43,49.687c1.333-2.725,0.887-4.236-1.082-5.374c-1.753-1.014-3.852-0.328-5.243,1.714c-1.134,1.665-0.863,3.622,0.679,4.897
			c1.415,1.17,3.052,1.058,4.695-0.616c-0.896-0.384-1.74-0.593-2.381-1.073c-0.43-0.322-0.933-1.229-0.77-1.524
			c0.345-0.624,1.104-1.019,1.588-1.42C-2.034,47.519-1.346,48.448-0.43,49.687z M45.18,64.984c0.912-0.515,1.658-0.697,1.887-1.146
			c0.16-0.313-0.44-0.971-0.603-1.506c-0.376-1.229-1.221-2.629-0.917-3.685c0.581-2.028-1.549-1.885-1.943-3.031
			c-0.04-0.116-1.412-0.025-1.458,0.151c-0.297,1.154-0.715,2.426-0.48,3.528c0.27,1.27,1.119,2.437,1.82,3.585
			C43.94,63.625,44.582,64.255,45.18,64.984z M65.62,54.151c-0.07-0.289-0.065-0.451-0.142-0.556
			c-1.69-2.327-3.361-4.671-5.132-6.938c-0.184-0.235-1.104-0.182-1.435,0.067c-0.312,0.234-0.564,1.088-0.383,1.354
			c1.542,2.261,3.165,4.469,4.836,6.637c0.216,0.279,0.897,0.406,1.275,0.298C65.04,54.899,65.335,54.42,65.62,54.151z"/>
		<path fill-rule="evenodd" clip-rule="evenodd" fill="#FFFFFF" d="M16.776,6.336c18.838-2.751,32.863,6.715,46.098,18.188
			C48.432,6.646,31.123,1.226,16.776,6.336z"/>
		<path fill-rule="evenodd" clip-rule="evenodd" fill="#FFFFFF" d="M14.06,57.249c-0.419,0.458-0.914,0.867-1.238,1.384
			c-0.407,0.651-0.544,1.512-1.047,2.049c-0.365,0.39-1.163,0.581-1.712,0.496c-0.24-0.037-0.588-1.058-0.455-1.505
			c0.371-1.253,0.967-2.438,1.474-3.651c-0.141-0.149-0.281-0.3-0.422-0.449c-0.456,0.291-1.06,0.483-1.336,0.895
			c-0.543,0.811-0.801,1.821-1.385,2.591c-0.274,0.361-1.139,0.609-1.541,0.441c-0.36-0.15-0.754-1.057-0.612-1.431
			c0.647-1.702,1.403-3.377,2.303-4.957c0.204-0.358,1.181-0.495,1.731-0.383c0.8,0.164,1.532,0.651,2.296,0.992
			c1.352,0.603,2.814,1.04,4.017,1.859c0.684,0.466,1.458,1.676,1.298,2.334c-0.406,1.675-1.248,3.264-2.08,4.797
			c-0.157,0.29-1.223,0.397-1.602,0.16c-0.33-0.206-0.493-1.075-0.36-1.549c0.352-1.258,0.903-2.459,1.375-3.684
			C14.529,57.509,14.294,57.379,14.06,57.249z"/>
		<path fill-rule="evenodd" clip-rule="evenodd" fill="#FFFFFF" d="M19.685,65.006c-0.117,0.376-0.129,0.876-0.385,1.133
			c-0.43,0.431-1.016,0.706-1.536,1.048c-0.293-0.54-0.916-1.144-0.825-1.608c0.499-2.547,1.153-5.064,1.808-7.579
			c0.093-0.358,0.54-0.949,0.716-0.913c1.735,0.357,3.623,0.515,5.115,1.354c1.393,0.783,1.273,2.486,0.79,4.021
			C24.542,65.075,23.543,65.562,19.685,65.006z M23.42,61.193c-0.738-0.65-1.159-1.021-1.58-1.394
			c-0.438,0.609-1.036,1.17-1.239,1.849c-0.09,0.304,0.613,0.844,0.957,1.277C22.1,62.421,22.643,61.916,23.42,61.193z"/>
		<path fill-rule="evenodd" clip-rule="evenodd" fill="#FFFFFF" d="M6.697,52.439c-0.004,2.42-1.72,4.327-3.918,4.353
			c-2.091,0.024-4.005-1.758-4.053-3.773c-0.053-2.254,2.034-4.514,4.161-4.506C4.964,48.521,6.7,50.31,6.697,52.439z M2.417,54.994
			c0.833-1.157,1.499-1.77,1.707-2.51c0.096-0.343-0.699-0.937-1.09-1.417c-0.552,0.623-1.237,1.179-1.592,1.898
			C1.296,53.26,1.868,53.906,2.417,54.994z"/>
		<path fill-rule="evenodd" clip-rule="evenodd" fill="#FFFFFF" d="M34.982,63.715c0.806-0.051,1.412-0.16,2.002-0.104
			c0.542,0.05,1.069,0.276,1.602,0.425c0.043-0.206,0.086-0.412,0.129-0.619c-0.636-0.086-1.276-0.143-1.904-0.265
			c-1.669-0.325-2.49-2.148-1.627-3.575c0.936-1.547,4.562-2.087,5.377-0.554c0.821,1.546,1.307,3.526,1.167,5.253
			c-0.137,1.688-2.043,1.943-3.54,1.997C36.702,66.325,35.402,65.887,34.982,63.715z"/>
		<path fill-rule="evenodd" clip-rule="evenodd" fill="#FFFFFF" d="M26.155,62.525c0-2.356,1.629-4.045,3.922-4.064
			c2.392-0.021,3.888,1.504,3.908,3.983c0.021,2.545-1.39,4.119-3.732,4.162C27.811,66.652,26.155,65.004,26.155,62.525z
			 M32.14,62.48c-0.959-0.754-1.682-1.605-1.955-1.479c-0.609,0.281-1.279,1.007-1.372,1.633c-0.064,0.432,0.821,1.429,1.238,1.405
			C30.631,64.006,31.17,63.254,32.14,62.48z"/>
		<path fill-rule="evenodd" clip-rule="evenodd" fill="#FFFFFF" d="M-0.43,49.687c-0.916-1.238-1.604-2.168-2.513-3.396
			c-0.484,0.401-1.244,0.796-1.588,1.42c-0.163,0.296,0.339,1.202,0.77,1.524c0.641,0.48,1.484,0.689,2.381,1.073
			c-1.643,1.674-3.28,1.786-4.695,0.616c-1.542-1.275-1.813-3.232-0.679-4.897c1.392-2.042,3.49-2.728,5.243-1.714
			C0.457,45.45,0.903,46.962-0.43,49.687z"/>
		<path fill-rule="evenodd" clip-rule="evenodd" fill="#FFFFFF" d="M45.18,64.984c-0.598-0.729-1.239-1.359-1.694-2.103
			c-0.701-1.148-1.551-2.315-1.82-3.585c-0.234-1.103,0.184-2.374,0.48-3.528c0.046-0.177,1.418-0.268,1.458-0.151
			c0.395,1.146,2.524,1.003,1.943,3.031c-0.304,1.056,0.541,2.456,0.917,3.685c0.162,0.535,0.763,1.192,0.603,1.506
			C46.838,64.287,46.092,64.47,45.18,64.984z"/>
		<path fill-rule="evenodd" clip-rule="evenodd" d="M59.523,55.366c-0.701,0.6-1.341,1.238-1.404,1.186
			c-0.624-0.519-1.184-1.13-1.655-1.791c-0.046-0.063,0.79-0.983,0.933-0.915C58.062,54.165,58.628,54.692,59.523,55.366z"/>
		<path fill-rule="evenodd" clip-rule="evenodd" d="M23.42,61.193c-0.777,0.723-1.32,1.228-1.862,1.732
			c-0.343-0.434-1.047-0.974-0.957-1.277c0.203-0.679,0.801-1.239,1.239-1.849C22.261,60.172,22.682,60.543,23.42,61.193z"/>
		<path fill-rule="evenodd" clip-rule="evenodd" d="M2.417,54.994c-0.549-1.088-1.121-1.734-0.976-2.028
			c0.355-0.72,1.04-1.275,1.592-1.898c0.392,0.48,1.187,1.074,1.09,1.417C3.916,53.225,3.25,53.837,2.417,54.994z"/>
		<path fill-rule="evenodd" clip-rule="evenodd" d="M32.14,62.48c-0.969,0.773-1.509,1.525-2.088,1.559
			c-0.417,0.023-1.303-0.974-1.238-1.405c0.093-0.626,0.763-1.352,1.372-1.633C30.458,60.875,31.181,61.727,32.14,62.48z"/>
	</g>
</g>
<g id="Layer_2">
	<circle fill-rule="evenodd" clip-rule="evenodd" fill="#136926" cx="36" cy="36" r="32.625"/>
	<g>
		<path fill-rule="evenodd" clip-rule="evenodd" fill="#FFFFFF" d="M19.177,58.432c-0.562,0.707-1.112,1.4-1.81,2.278
			c-0.192-0.762-0.349-1.313-0.47-1.873c-0.567-2.63-1.12-5.263-1.691-7.892c-0.119-0.548-0.032-0.802,0.62-0.856
			c3.18-0.265,6.355-0.583,9.532-0.88c0.095-0.009,0.192,0.017,0.501,0.048c-0.372,0.543-0.664,1-0.985,1.436
			c-0.725,0.983-0.73,0.979,0.285,1.643c7.262,4.735,17.225,4.027,23.742-1.663c1.592-1.39,3.006-2.92,4.072-4.749
			c0.26-0.447,0.5-0.505,0.947-0.238c1.988,1.192,3.98,2.382,6.006,3.513c0.633,0.354,0.473,0.677,0.197,1.123
			c-2.121,3.454-4.859,6.322-8.225,8.575c-4.543,3.04-9.525,4.676-15.022,4.838c-6.297,0.187-12.006-1.501-17.202-5.018
			C19.535,58.62,19.379,58.546,19.177,58.432z"/>
		<path fill-rule="evenodd" clip-rule="evenodd" fill="#FFFFFF" d="M23.537,6.84c0.966,0.296,1.935,0.586,2.899,0.89
			c2.116,0.666,4.229,1.342,6.345,2.007c0.858,0.27,0.893,0.334,0.521,1.133c-1.251,2.691-2.499,5.383-3.752,8.073
			c-0.123,0.263-0.273,0.513-0.522,0.977c-0.464-0.989-0.845-1.802-1.302-2.775c-1.13,0.675-2.246,1.23-3.241,1.954
			c-4.995,3.628-7.889,8.498-8.462,14.681c-0.364,3.928,0.414,7.637,2.295,11.103c0.277,0.513,0.228,0.765-0.292,1.056
			c-2.003,1.118-3.99,2.271-5.967,3.435c-0.494,0.291-0.728,0.168-0.988-0.308c-2.794-5.122-3.886-10.587-3.314-16.384
			c0.678-6.878,3.547-12.714,8.453-17.553c2.221-2.191,4.76-3.952,7.592-5.261c0.609-0.281,0.623-0.574,0.363-1.082
			c-0.292-0.57-0.538-1.162-0.803-1.744C23.42,6.974,23.478,6.907,23.537,6.84z"/>
		<path fill-rule="evenodd" clip-rule="evenodd" fill="#FFFFFF" d="M67.098,38.968c-1.262,1.156-2.395,2.199-3.535,3.235
			c-1.311,1.191-2.629,2.372-3.938,3.564c-0.283,0.258-0.527,0.492-0.842,0.043c-1.891-2.695-3.785-5.388-5.676-8.082
			c-0.041-0.059-0.051-0.136-0.135-0.368c0.967,0.059,1.865,0.114,2.943,0.181c0.031-0.951,0.137-1.91,0.082-2.862
			c-0.266-4.657-1.861-8.802-4.959-12.319c-3.371-3.829-7.658-5.98-12.666-6.753c-0.639-0.098-1.293-0.107-1.94-0.135
			c-0.438-0.019-0.629-0.226-0.621-0.657c0.04-2.369,0.079-4.737,0.108-7.106c0.007-0.537,0.343-0.629,0.753-0.569
			c2.288,0.331,4.637,0.453,6.85,1.064c5.908,1.633,10.848,4.863,14.666,9.702c3.389,4.291,5.467,9.144,5.918,14.618
			c0.15,1.829,0.074,3.68,0.049,5.52c-0.008,0.489,0.252,0.543,0.582,0.576c0.57,0.056,1.146,0.073,1.717,0.128
			C66.615,38.762,66.768,38.851,67.098,38.968z"/>
		<path fill-rule="evenodd" clip-rule="evenodd" fill="#FFFFFF" d="M26.271,32.623c-2.888,0.574-5.784,1.245-7.815,3.77
			c-0.673-1.003-0.57-1.664,0.354-2.344c1.675-1.232,3.62-1.829,5.623-2.093c1.486-0.195,2.439-0.567,3.222-2.089
			c1.913-3.717,6.551-5.155,10.408-3.357c5.539,2.582,9.207,6.811,10.607,12.84c0.236,1.012,0.258,2.074,0.359,3.115
			c0.018,0.178-0.061,0.365-0.131,0.734c-0.875-1.203-1.926-1.852-3.188-2.201c-1.824-0.504-3.654-0.482-5.479-0.082
			c-1.531,0.334-3.039,0.773-4.563,1.15c-3.706,0.916-7.964-1.699-8.946-5.563C26.417,35.296,26.422,34.01,26.271,32.623z"/>
		<path fill-rule="evenodd" clip-rule="evenodd" fill="#136926" d="M29.719,31.572c5.084-1.812,11.218,0.109,16.337,6.446
			C41.365,33.951,36.396,30.596,29.719,31.572z"/>
	</g>
</g>
</svg>
